<?xml version="1.0" encoding="UTF-8"?>
<svg version="1.1" xmlns="http://www.w3.org/2000/svg" width="728" height="515">
<path d="M0 0 C4.60801142 -0.14873164 9.21461592 -0.257388 13.82446289 -0.32958984 C15.39111679 -0.35969601 16.95760303 -0.4005923 18.52368164 -0.45263672 C20.78053143 -0.52573887 23.03514796 -0.55951301 25.29296875 -0.5859375 C25.98899704 -0.61690521 26.68502533 -0.64787292 27.40214539 -0.67977905 C30.18185856 -0.68168684 32.352765 -0.53360125 34.54336548 1.2723999 C38.34254723 5.69997725 39.80011474 9.76128511 40.3125 15.5 C39.95735286 19.47764795 39.06187586 21.59132438 37 25 C34.48828125 27.09765625 34.48828125 27.09765625 31.3125 29.0625 C30.7136499 29.43479736 30.1147998 29.80709473 29.49780273 30.19067383 C22.64991464 34.36317074 15.53298824 38.06686279 8.46240234 41.84326172 C-7.90158864 50.63429775 -23.72491574 60.43069818 -39 71 C-39.56944336 71.39074707 -40.13888672 71.78149414 -40.72558594 72.18408203 C-57.05236688 83.42539688 -71.78699303 96.20615274 -86 110 C-86.61568848 110.59377441 -87.23137695 111.18754883 -87.86572266 111.79931641 C-103.60764525 127.02270189 -118.17204541 144.76927072 -127 165 C-127 166.32 -127 167.64 -127 169 C-126.02804688 169.17015625 -125.05609375 169.3403125 -124.0546875 169.515625 C-121.89839161 169.89339549 -119.74261698 170.27366758 -117.58764648 170.65893555 C-113.26493012 171.43123987 -108.94009795 172.17630884 -104.60546875 172.87890625 C-73.56700973 178.02311361 -44.72051035 191.00734834 -21 212 C-20.51015625 212.43103027 -20.0203125 212.86206055 -19.515625 213.30615234 C12.96524851 242.05211959 35.19367563 281.23337494 38.81689453 324.88818359 C41.86642 376.71385244 28.91511879 422.64076473 -6 462 C-30.76278771 489.24942748 -63.1976537 505.59911787 -98.921875 513.2734375 C-101.85666922 513.68141816 -101.85666922 513.68141816 -103 515 C-104.84118029 515.09381302 -106.68597641 515.11743954 -108.52954102 515.11352539 C-109.71068985 515.11344986 -110.89183868 515.11337433 -112.10877991 515.11329651 C-113.3941716 515.10813522 -114.67956329 515.10297394 -116.00390625 515.09765625 C-117.9661338 515.09553383 -117.9661338 515.09553383 -119.96800232 515.09336853 C-123.45162859 515.0895441 -126.93521339 515.07971446 -130.41882324 515.06866455 C-133.97126708 515.05844882 -137.52371759 515.05387056 -141.07617188 515.04882812 C-148.05079832 515.03809212 -155.02539717 515.0210166 -162 515 C-162 514.34 -162 513.68 -162 513 C-162.9178125 513.05800781 -163.835625 513.11601563 -164.78125 513.17578125 C-192.40070501 513.09967554 -223.847729 493.73901305 -244 476 C-244.83917969 475.27039063 -245.67835938 474.54078125 -246.54296875 473.7890625 C-249.06376416 471.56138283 -251.53864021 469.29309513 -254 467 C-254.80050781 466.26523437 -255.60101563 465.53046875 -256.42578125 464.7734375 C-267.96321313 453.76963485 -276.72495635 440.75883131 -284.10400391 426.70263672 C-284.85671633 425.27227801 -285.6344791 423.85514102 -286.41796875 422.44140625 C-298.44094762 399.99073049 -304.63063734 373.33059982 -304 348 C-304.66 348 -305.32 348 -306 348 C-306.02887236 344.18751574 -306.04675492 340.3750593 -306.0625 336.5625 C-306.07087891 335.47388672 -306.07925781 334.38527344 -306.08789062 333.26367188 C-306.09111328 332.22919922 -306.09433594 331.19472656 -306.09765625 330.12890625 C-306.10289307 329.17056885 -306.10812988 328.21223145 -306.11352539 327.22485352 C-306 325 -306 325 -305 324 C-304.77093514 322.17205098 -304.60207256 320.33652698 -304.45703125 318.5 C-297.49617417 237.04351668 -268.3046675 149.63928712 -204.875 94.25 C-204.24207031 93.72148438 -203.60914063 93.19296875 -202.95703125 92.6484375 C-200.75527096 90.79386097 -198.66933433 88.83665751 -196.5625 86.875 C-174.95419568 67.4208978 -149.29357514 51.28380415 -123 39 C-122.14615723 38.60039063 -121.29231445 38.20078125 -120.41259766 37.7890625 C-113.97221031 34.78983466 -107.50078458 31.865855 -101 29 C-100.34241699 28.70883301 -99.68483398 28.41766602 -99.00732422 28.11767578 C-72.31736062 16.44867867 -43.31807645 9.67541646 -14.9375 3.5 C-14.21296631 3.33975342 -13.48843262 3.17950684 -12.74194336 3.0144043 C-8.43717938 2.12109967 -4.39057656 1.8629729 0 2 C0 1.34 0 0.68 0 0 Z " fill="#00A4E9" transform="translate(306,0)"/>
<path d="M0 0 C1.47583955 0.0001591 2.95168467 0.00585225 4.42749023 0.01586914 C5.20293686 0.01728409 5.97838348 0.01869904 6.77732849 0.02015686 C9.26361893 0.02577194 11.74982059 0.03832693 14.23608398 0.05102539 C15.91772331 0.05603845 17.59936405 0.06060169 19.28100586 0.06469727 C23.41189965 0.07574626 27.54272674 0.09302094 31.67358398 0.11352539 C31.67358398 0.77352539 31.67358398 1.43352539 31.67358398 2.11352539 C32.28717773 2.36489258 32.90077148 2.61625977 33.53295898 2.87524414 C36.02003505 4.31393595 36.69021201 5.36628911 37.92358398 7.92602539 C38.25874023 8.5924707 38.59389648 9.25891602 38.93920898 9.94555664 C40.09673341 13.36271652 40.14757191 16.04159241 38.67749023 19.36621094 C34.8052572 25.26703759 30.81611883 28.54466937 24.67358398 31.92602539 C23.8020166 32.42827637 22.93044922 32.93052734 22.0324707 33.44799805 C14.78028383 37.59524151 7.40046505 41.51516717 0.04223633 45.4699707 C-20.4317335 56.58780827 -39.85282825 69.93865171 -58.32641602 84.11352539 C-59.43823242 84.95077148 -59.43823242 84.95077148 -60.57250977 85.80493164 C-79.15183184 99.95248882 -96.67360142 116.09302627 -110.32641602 135.11352539 C-110.79660156 135.76063477 -111.26678711 136.40774414 -111.7512207 137.07446289 C-123.39333158 152.19260401 -123.39333158 152.19260401 -127.32641602 170.11352539 C-126.07731445 170.27208008 -124.82821289 170.43063477 -123.54125977 170.59399414 C-84.28317042 175.76455315 -51.8300862 187.54714797 -21.32641602 213.11352539 C-20.44469727 213.81606445 -19.56297852 214.51860352 -18.65454102 215.24243164 C7.45048344 236.22281203 24.86947308 269.97896763 33.42358398 301.80102539 C33.62234131 302.53619385 33.82109863 303.2713623 34.02587891 304.02880859 C37.17593835 316.31444547 38.04994817 328.42521231 37.98608398 341.05102539 C37.98392883 341.81909515 37.98177368 342.58716492 37.97955322 343.37850952 C37.76430852 391.34261868 20.96478408 432.47629307 -12.79907227 466.61352539 C-13.6330957 467.43852539 -14.46711914 468.26352539 -15.32641602 469.11352539 C-16.2171582 470.00168945 -17.10790039 470.88985352 -18.02563477 471.80493164 C-39.6736855 492.83196169 -73.37538817 512.3781878 -104.32641602 513.11352539 C-104.32641602 513.77352539 -104.32641602 514.43352539 -104.32641602 515.11352539 C-112.06305994 515.15992158 -119.79968938 515.19543159 -127.53644085 515.21714973 C-131.1291617 515.2275748 -134.72178716 515.24171055 -138.31445312 515.2644043 C-141.78334805 515.28617842 -145.25215138 515.29810362 -148.72110939 515.30327988 C-150.6847651 515.30875874 -152.6483841 515.32436442 -154.61198425 515.34011841 C-155.81285172 515.34026947 -157.01371918 515.34042053 -158.25097656 515.34057617 C-159.30576706 515.3450174 -160.36055756 515.34945862 -161.4473114 515.35403442 C-164.46401281 515.1020311 -166.57457923 514.33179923 -169.32641602 513.11352539 C-171.21317243 512.66863106 -173.10083535 512.22641004 -174.99658203 511.8215332 C-207.03333258 504.97242277 -233.74724473 487.31724502 -257.32641602 465.11352539 C-258.04829102 464.44579102 -258.77016602 463.77805664 -259.51391602 463.09008789 C-289.20001502 434.72071102 -304.35483176 391.42263628 -306.24047852 351.10571289 C-306.35075074 345.98306685 -306.42618396 340.86231569 -306.45141602 335.73852539 C-306.45625 334.84198242 -306.46108398 333.94543945 -306.46606445 333.02172852 C-306.428275 317.85196404 -305.00263599 303.0797583 -302.63891602 288.11352539 C-302.50702881 287.26623871 -302.3751416 286.41895203 -302.23925781 285.54598999 C-299.99447572 271.20688893 -297.20730257 257.10962379 -293.32641602 243.11352539 C-293.0842334 242.2326123 -292.84205078 241.35169922 -292.5925293 240.4440918 C-289.1515377 228.09375924 -284.95985691 216.06306121 -280.32641602 204.11352539 C-280.05216797 203.39600098 -279.77791992 202.67847656 -279.49536133 201.93920898 C-267.1557816 169.83713628 -248.05272021 138.81105451 -224.63110352 113.60180664 C-222.62415405 111.43498154 -220.6841832 109.23178682 -218.76391602 106.98852539 C-212.49527404 99.79283073 -205.6126816 93.26410335 -198.32641602 87.11352539 C-197.37379883 86.30657227 -196.42118164 85.49961914 -195.43969727 84.66821289 C-189.85410352 79.96699752 -184.19943656 75.45081713 -178.32641602 71.11352539 C-177.39780762 70.42480347 -177.39780762 70.42480347 -176.45043945 69.72216797 C-159.79598562 57.45983197 -142.0488857 46.89711598 -123.32641602 38.11352539 C-122.52333008 37.73131836 -121.72024414 37.34911133 -120.89282227 36.95532227 C-87.45537041 21.09138834 -52.81293002 10.56259299 -16.5546875 3.53710938 C-15.74439087 3.37980347 -14.93409424 3.22249756 -14.09924316 3.0604248 C-12.57290999 2.76627731 -11.04575289 2.47636429 -9.5177002 2.19128418 C-6.01218832 1.52269743 -3.43289435 0.11715933 0 0 Z " fill="#00A4E9" transform="translate(688.326416015625,-0.113525390625)"/>
<path d="M0 0 C0.99 0.33 1.98 0.66 3 1 C-0.96465884 8.0226935 -4.97419542 11.94491972 -12 15.8125 C-12.87156738 16.31475098 -13.74313477 16.81700195 -14.64111328 17.33447266 C-21.89330015 21.48171612 -29.27311894 25.40164178 -36.63134766 29.35644531 C-57.10531748 40.47428288 -76.52641223 53.82512632 -95 68 C-96.11181641 68.83724609 -96.11181641 68.83724609 -97.24609375 69.69140625 C-115.82541582 83.83896343 -133.3471854 99.97950088 -147 119 C-147.47018555 119.64710938 -147.94037109 120.29421875 -148.42480469 120.9609375 C-160.06691557 136.07907862 -160.06691557 136.07907862 -164 154 C-162.75089844 154.15855469 -161.50179687 154.31710938 -160.21484375 154.48046875 C-120.95675441 159.65102776 -88.50367019 171.43362258 -58 197 C-57.11828125 197.70253906 -56.2365625 198.40507812 -55.328125 199.12890625 C-29.22310055 220.10928664 -11.80411091 253.86544224 -3.25 285.6875 C-2.95186401 286.79025269 -2.95186401 286.79025269 -2.64770508 287.9152832 C0.50235436 300.20092008 1.37636419 312.31168692 1.3125 324.9375 C1.30926727 326.08960464 1.30926727 326.08960464 1.30596924 327.26498413 C1.09072454 375.22909329 -15.7087999 416.36276767 -49.47265625 450.5 C-50.72369141 451.7375 -50.72369141 451.7375 -52 453 C-52.89074219 453.88816406 -53.78148437 454.77632813 -54.69921875 455.69140625 C-76.34726949 476.7184363 -110.04897215 496.26466241 -141 497 C-141 497.66 -141 498.32 -141 499 C-141.66 499 -142.32 499 -143 499 C-142.67 498.01 -142.34 497.02 -142 496 C-139.52246094 495.11206055 -139.52246094 495.11206055 -136.234375 494.38671875 C-135.03296875 494.10763672 -133.8315625 493.82855469 -132.59375 493.54101562 C-130.07840192 492.98247543 -127.56278684 492.42513591 -125.046875 491.86914062 C-117.3325326 490.07539258 -110.75764352 487.77282125 -103.71582031 484.18286133 C-101 483 -101 483 -97 483 C-97 482.34 -97 481.68 -97 481 C-95.67162109 480.34257813 -95.67162109 480.34257813 -94.31640625 479.671875 C-80.60501661 472.71779998 -67.85917731 464.25999315 -56.78515625 453.546875 C-55 452 -55 452 -53 452 C-52.74863281 451.41605469 -52.49726562 450.83210938 -52.23828125 450.23046875 C-50.84200562 447.71541076 -49.30843297 446.2524257 -47.1875 444.3125 C-40.28097709 437.57361114 -34.69241476 429.76457421 -29 422 C-28.36707031 421.14019531 -27.73414063 420.28039062 -27.08203125 419.39453125 C-23.03607689 413.61304687 -20.00237641 407.30082064 -16.95996094 400.95166016 C-16.257256 399.52301742 -15.52738865 398.10764762 -14.78222656 396.70068359 C-11.67612259 390.76926 -9.55511819 384.97337942 -7.875 378.5 C-7.62274658 377.55092773 -7.37049316 376.60185547 -7.1105957 375.62402344 C-4.84029299 366.84228997 -3.13832794 357.99801241 -2 349 C-1.9057373 348.25943359 -1.81147461 347.51886719 -1.71435547 346.75585938 C0.33935564 328.72434931 0.30207887 309.69086807 -4 292 C-4.18755859 291.2255957 -4.37511719 290.45119141 -4.56835938 289.65332031 C-6.50120815 281.88126658 -8.52748165 274.18980135 -12.0546875 266.96875 C-13.07182366 264.85041684 -13.87219391 262.70352998 -14.6875 260.5 C-19.97224339 247.25729673 -27.32080276 235.25940412 -36 224 C-36.71800781 223.05769531 -37.43601562 222.11539063 -38.17578125 221.14453125 C-58.86208415 194.93683854 -88.22442995 175.11868095 -120 165 C-121.09441406 164.64164063 -122.18882812 164.28328125 -123.31640625 163.9140625 C-136.08840852 159.97738509 -149.49190633 157.85581241 -162.84765625 157.40625 C-163.55792969 157.2721875 -164.26820313 157.138125 -165 157 C-167.08940868 153.86588698 -167.27364412 153.02549528 -167.25 149.4375 C-167.25515625 148.65246094 -167.2603125 147.86742187 -167.265625 147.05859375 C-167 145 -167 145 -165 143 C-164.608125 142.030625 -164.21625 141.06125 -163.8125 140.0625 C-159.47971067 129.65951572 -151.99888264 120.72716223 -145 112 C-144.17886719 110.97132812 -143.35773437 109.94265625 -142.51171875 108.8828125 C-131.71933518 95.6308273 -119.50099754 83.4732703 -106 73 C-104.89728918 72.09934601 -103.79718714 71.19549186 -102.69921875 70.2890625 C-81.28783303 52.69632387 -57.83285311 38.11709658 -33.73193359 24.53955078 C-28.9604263 21.85062093 -24.19815076 19.14559028 -19.4375 16.4375 C-18.55078613 15.93669922 -17.66407227 15.43589844 -16.75048828 14.91992188 C-15.92403809 14.45005859 -15.09758789 13.98019531 -14.24609375 13.49609375 C-13.52091553 13.08544678 -12.7957373 12.6747998 -12.04858398 12.25170898 C-9.93158354 11.00968018 -9.93158354 11.00968018 -7.85961914 9.34399414 C-6 8 -6 8 -4 8 C-3.71125 7.4225 -3.4225 6.845 -3.125 6.25 C-1.5625 3.125 -1.5625 3.125 0 0 Z " fill="#398D9A" transform="translate(725,16)"/>
<path d="M0 0 C4.92021838 3.191493 6.66000955 6.46345033 8 12 C8.55241725 17.34003346 7.75425629 20.42523316 5 25 C2.48828125 27.09765625 2.48828125 27.09765625 -0.6875 29.0625 C-1.2863501 29.43479736 -1.8852002 29.80709473 -2.50219727 30.19067383 C-9.35008536 34.36317074 -16.46701176 38.06686279 -23.53759766 41.84326172 C-39.90158864 50.63429775 -55.72491574 60.43069818 -71 71 C-71.85416504 71.58612061 -71.85416504 71.58612061 -72.72558594 72.18408203 C-89.05236688 83.42539688 -103.78699303 96.20615274 -118 110 C-118.61568848 110.59377441 -119.23137695 111.18754883 -119.86572266 111.79931641 C-135.60764525 127.02270189 -150.17204541 144.76927072 -159 165 C-159 166.32 -159 167.64 -159 169 C-158.02804688 169.17015625 -157.05609375 169.3403125 -156.0546875 169.515625 C-153.89839161 169.89339549 -151.74261698 170.27366758 -149.58764648 170.65893555 C-145.26493012 171.43123987 -140.94009795 172.17630884 -136.60546875 172.87890625 C-105.56700973 178.02311361 -76.72051035 191.00734834 -53 212 C-52.51015625 212.43103027 -52.0203125 212.86206055 -51.515625 213.30615234 C-19.03475149 242.05211959 3.19367563 281.23337494 6.81689453 324.88818359 C9.86642 376.71385244 -3.08488121 422.64076473 -38 462 C-62.71036546 489.19174107 -95.09108684 505.54217134 -130.7265625 513.2734375 C-133.98435282 513.93747843 -133.98435282 513.93747843 -137 515 C-136.67 514.01 -136.34 513.02 -136 512 C-134.30786133 511.32739258 -134.30786133 511.32739258 -132.08203125 510.89453125 C-131.2509082 510.72018555 -130.41978516 510.54583984 -129.56347656 510.36621094 C-128.20174316 510.09212402 -128.20174316 510.09212402 -126.8125 509.8125 C-99.06042405 503.67823227 -74.53062039 491.6014897 -53 473 C-52.00871094 472.1440625 -51.01742187 471.288125 -49.99609375 470.40625 C-21.80000129 445.57080381 -0.5812764 406.46366714 4 369 C4.1403064 367.88069092 4.1403064 367.88069092 4.28344727 366.73876953 C9.27513045 322.7216023 -0.31185293 277.22389018 -28 242 C-28.57363281 241.23558594 -29.14726562 240.47117188 -29.73828125 239.68359375 C-36.35610467 230.93589613 -43.57174866 223.01854382 -52 216 C-53.27230469 214.87851562 -53.27230469 214.87851562 -54.5703125 213.734375 C-82.0363409 189.93547301 -115.35703221 177.23532968 -151.14672852 173.12646484 C-158.85716772 172.1603411 -158.85716772 172.1603411 -162 169 C-161.45595862 164.1110802 -159.90108142 160.2674186 -157.5625 156 C-157.03233276 155.02377686 -157.03233276 155.02377686 -156.49145508 154.02783203 C-147.14490301 137.23448311 -134.23932861 122.87491247 -120.66601562 109.40527344 C-118.99370337 107.74374397 -117.33244637 106.07169244 -115.671875 104.3984375 C-109.08931138 97.80773916 -102.3039424 91.79132727 -95 86 C-93.89009834 85.0666736 -92.7848268 84.12776649 -91.6875 83.1796875 C-86.33412166 78.58885433 -80.95601303 74.49923272 -74.94140625 70.8203125 C-72.23526568 69.14559602 -69.59138245 67.39825584 -66.95654297 65.61401367 C-51.92966883 55.44853963 -36.52221229 46.13429834 -20.49975586 37.62304688 C-13.55475787 33.91296335 -6.93045037 29.92732464 -0.4140625 25.51171875 C2 24 2 24 4 24 C5.86688634 18.72879151 6.57467812 14.455927 5 9 C3.09643013 5.72689447 3.09643013 5.72689447 1 3 C0.67 2.01 0.34 1.02 0 0 Z " fill="#3A8F9D" transform="translate(338,0)"/>
<path d="M0 0 C0.66 0 1.32 0 2 0 C1.67 0.99 1.34 1.98 1 3 C0.10732422 3.16491943 -0.78535156 3.32983887 -1.70507812 3.49975586 C-46.79282654 11.92637755 -90.17413395 24.67305505 -131 46 C-131.88558594 46.45246094 -132.77117187 46.90492187 -133.68359375 47.37109375 C-148.9818895 55.41403551 -163.54054583 64.88706188 -177.13574219 75.54150391 C-179.03097211 77.02423093 -180.93974898 78.48795692 -182.8515625 79.94921875 C-188.28062099 84.12303212 -193.61521576 88.27311834 -198.31201172 93.28271484 C-200.0439229 95.04468523 -201.85546785 96.63148705 -203.73828125 98.23046875 C-207.8406629 101.79706359 -211.60970206 105.58624193 -215.3125 109.5625 C-215.95985107 110.25649902 -216.60720215 110.95049805 -217.27416992 111.66552734 C-223.2540098 118.15150714 -228.73871492 124.92419621 -234 132 C-234.40492676 132.53737793 -234.80985352 133.07475586 -235.22705078 133.62841797 C-243.21824756 144.27370745 -250.20034973 155.56663347 -257 167 C-257.38397949 167.64485352 -257.76795898 168.28970703 -258.16357422 168.95410156 C-280.55785858 207.18197042 -291.53109088 251.59374162 -298 295 C-298.27602051 296.81129395 -298.27602051 296.81129395 -298.55761719 298.65917969 C-299.54191645 305.27516589 -300.3450309 311.81665376 -300.625 318.5 C-300.66222168 319.30622803 -300.69944336 320.11245605 -300.73779297 320.94311523 C-301.04043528 327.96734554 -301.1629498 334.96987992 -301 342 C-300.98324219 343.29164063 -300.96648437 344.58328125 -300.94921875 345.9140625 C-300.45052032 365.19931486 -296.64745497 384.8941692 -290 403 C-289.56042969 404.22074219 -289.12085938 405.44148438 -288.66796875 406.69921875 C-273.38129971 447.00043713 -243.79341772 477.00428312 -206 497 C-205.22930176 497.41233887 -204.45860352 497.82467773 -203.66455078 498.24951172 C-197.68601609 501.35703191 -191.68329364 503.64447315 -185.25 505.625 C-184.29714111 505.92567383 -183.34428223 506.22634766 -182.36254883 506.53613281 C-175.75587641 508.5789157 -169.2136683 510.16578277 -162.38671875 511.296875 C-161.59910156 511.52890625 -160.81148437 511.7609375 -160 512 C-159.67 512.99 -159.34 513.98 -159 515 C-189.41118204 508.58296159 -218.58626783 497.00505776 -242 476 C-242.49193848 475.56155762 -242.98387695 475.12311523 -243.49072266 474.67138672 C-247.04233615 471.49772271 -250.53118803 468.26390324 -254 465 C-254.72058594 464.33355469 -255.44117188 463.66710937 -256.18359375 462.98046875 C-285.87081852 434.6073666 -301.02820632 391.31358862 -302.9140625 350.9921875 C-303.02433472 345.86954146 -303.09976794 340.7487903 -303.125 335.625 C-303.12983398 334.72845703 -303.13466797 333.83191406 -303.13964844 332.90820312 C-303.10185899 317.73843865 -301.67621997 302.96623291 -299.3125 288 C-299.18061279 287.15271332 -299.04872559 286.30542664 -298.9128418 285.4324646 C-296.66805971 271.09336354 -293.88088656 256.9960984 -290 243 C-289.75781738 242.11908691 -289.51563477 241.23817383 -289.26611328 240.33056641 C-285.82512169 227.98023385 -281.63344089 215.94953582 -277 204 C-276.72575195 203.28247559 -276.45150391 202.56495117 -276.16894531 201.82568359 C-263.82936559 169.72361089 -244.72630419 138.69752912 -221.3046875 113.48828125 C-219.29773803 111.32145615 -217.35776718 109.11826143 -215.4375 106.875 C-209.16885802 99.67930534 -202.28626559 93.15057796 -195 87 C-194.04738281 86.19304687 -193.09476562 85.38609375 -192.11328125 84.5546875 C-186.5276875 79.85347213 -180.87302054 75.33729174 -175 71 C-174.0713916 70.31127808 -174.0713916 70.31127808 -173.12402344 69.60864258 C-156.4695696 57.34630658 -138.72246969 46.78359059 -120 38 C-119.19691406 37.61779297 -118.39382813 37.23558594 -117.56640625 36.84179688 C-84.12895439 20.97786295 -49.48651401 10.4490676 -13.22827148 3.42358398 C-12.41797485 3.26627808 -11.60767822 3.10897217 -10.77282715 2.94689941 C-9.24649397 2.65275192 -7.71933688 2.3628389 -6.19128418 2.07775879 C-2.80775606 1.66536973 -2.80775606 1.66536973 0 0 Z " fill="#3A8F9B" transform="translate(685,0)"/>
<path d="M0 0 C0.66 0 1.32 0 2 0 C1.67 0.99 1.34 1.98 1 3 C-1.34375 3.84375 -1.34375 3.84375 -4.5 4.5 C-5.69882812 4.75394531 -6.89765625 5.00789062 -8.1328125 5.26953125 C-11.8723696 5.97589204 -15.617604 6.58431884 -19.375 7.1875 C-50.72084154 12.43087149 -83.34055826 22.32404255 -111.59765625 36.83203125 C-113.888828 37.94595052 -116.1766231 38.86082834 -118.5625 39.75 C-124.39790268 41.99079463 -129.81440621 45.00504671 -135.28735352 48.00292969 C-135.99690186 48.38868164 -136.7064502 48.77443359 -137.4375 49.171875 C-138.07558594 49.5234668 -138.71367187 49.87505859 -139.37109375 50.23730469 C-141 51 -141 51 -143 51 C-143 51.66 -143 52.32 -143 53 C-143.98613281 53.38929687 -144.97226563 53.77859375 -145.98828125 54.1796875 C-150.35350863 56.05472865 -154.22814778 58.5172466 -158.1875 61.125 C-158.9307251 61.61073486 -159.6739502 62.09646973 -160.43969727 62.59692383 C-166.83071269 66.81233309 -172.97033301 71.27923322 -179 76 C-179.85980469 76.66644531 -180.71960938 77.33289063 -181.60546875 78.01953125 C-186.80315924 82.10515773 -191.75889565 86.40214385 -196.640625 90.859375 C-198.6886696 92.71753467 -200.7695697 94.52027421 -202.875 96.3125 C-215.42107343 107.25532267 -226.01365465 119.73231071 -236 133 C-236.6703125 133.88558594 -237.340625 134.77117187 -238.03125 135.68359375 C-247.18432845 148.00648831 -256.40378108 161.20887731 -262.4375 175.375 C-263.89828341 178.76401751 -265.57118668 181.84666938 -267.375 185.0625 C-270.48973731 190.75427259 -272.75608274 196.45050879 -274.76171875 202.61328125 C-275.69353273 205.16180717 -276.65006253 207.3230486 -277.90234375 209.69921875 C-280.49878551 214.7667902 -282.17085224 220.07921131 -283.875 225.5 C-284.39380737 227.14162109 -284.39380737 227.14162109 -284.9230957 228.81640625 C-294.71145123 260.31271718 -301.31630632 293.0228273 -303 326 C-303.99 326.33 -304.98 326.66 -306 327 C-305.67 326.01 -305.34 325.02 -305 324 C-304.78353762 322.10527939 -304.60868984 320.20569298 -304.45703125 318.3046875 C-297.46422667 236.9211767 -268.24413464 149.58642744 -204.875 94.25 C-204.24207031 93.72148438 -203.60914063 93.19296875 -202.95703125 92.6484375 C-200.75527096 90.79386097 -198.66933433 88.83665751 -196.5625 86.875 C-174.95419568 67.4208978 -149.29357514 51.28380415 -123 39 C-122.14615723 38.60039063 -121.29231445 38.20078125 -120.41259766 37.7890625 C-113.97221031 34.78983466 -107.50078458 31.865855 -101 29 C-100.34241699 28.70883301 -99.68483398 28.41766602 -99.00732422 28.11767578 C-72.31736062 16.44867867 -43.31807645 9.67541646 -14.9375 3.5 C-14.21296631 3.33975342 -13.48843262 3.17950684 -12.74194336 3.0144043 C-8.43717938 2.12109967 -4.39057656 1.8629729 0 2 C0 1.34 0 0.68 0 0 Z " fill="#3C8B94" transform="translate(306,0)"/>
<path d="M0 0 C0.66 0 1.32 0 2 0 C2.72523999 3.32883674 3.16862879 6.52980077 3.359375 9.9296875 C5.0927369 36.92519413 11.04868923 62.17697136 24 86 C24.32758301 86.61359375 24.65516602 87.2271875 24.99267578 87.859375 C45.50650701 126.12732922 81.02418816 155.19685161 122.62011719 167.79345703 C127.37512383 169.13849522 132.1581481 170.3443644 136.96337891 171.49511719 C140.000738 172.24808513 142.99737472 173.11944146 146 174 C146 174.66 146 175.32 146 176 C145.34 176 144.68 176 144 176 C144 175.34 144 174.68 144 174 C142.62328125 174.08701172 142.62328125 174.08701172 141.21875 174.17578125 C113.59929499 174.09967554 82.152271 154.73901305 62 137 C61.16082031 136.27039063 60.32164063 135.54078125 59.45703125 134.7890625 C56.93623584 132.56138283 54.46135979 130.29309513 52 128 C51.19949219 127.26523437 50.39898437 126.53046875 49.57421875 125.7734375 C38.03678687 114.76963485 29.27504365 101.75883131 21.89599609 87.70263672 C21.14328367 86.27227801 20.3655209 84.85514102 19.58203125 83.44140625 C7.55905238 60.99073049 1.36936266 34.33059982 2 9 C1.34 9 0.68 9 0 9 C0 6.03 0 3.06 0 0 Z " fill="#3A8D98" transform="translate(0,339)"/>
<path d="M0 0 C0 3.95390014 -1.78497392 6.47269809 -3.6875 9.8125 C-7.21456163 16.15996296 -9.78220158 22.45904969 -11.9921875 29.3671875 C-13 32 -13 32 -15 33 C-14.47789382 28.05242243 -13.42663843 24.21547471 -11.25 19.75 C-8.76495561 14.59517171 -6.41877179 9.40900733 -4.17578125 4.14453125 C-3 2 -3 2 0 0 Z " fill="#388E9B" transform="translate(43,174)"/>
<path d="M0 0 C0 5.94 0 11.88 0 18 C-0.33 18 -0.66 18 -1 18 C-1 16.35 -1 14.7 -1 13 C-1.66 13 -2.32 13 -3 13 C-3 9.04 -3 5.08 -3 1 C-1 0 -1 0 0 0 Z " fill="#1DA1CD" transform="translate(3,326)"/>
<path d="M0 0 C0.66 0 1.32 0 2 0 C2 0.66 2 1.32 2 2 C2.61359375 2.23460937 3.2271875 2.46921875 3.859375 2.7109375 C6.5630421 4.3390582 7.09053534 5.72633836 8.25 8.625 C8.58515625 9.44226562 8.9203125 10.25953125 9.265625 11.1015625 C9.62914062 12.04128906 9.62914062 12.04128906 10 13 C9.01 13 8.02 13 7 13 C6.38125 11.39125 6.38125 11.39125 5.75 9.75 C4.3587365 6.45490223 2.62958728 4.44823644 0 2 C0 1.34 0 0.68 0 0 Z " fill="#3B8E99" transform="translate(718,0)"/>
<path d="M0 0 C0 3.44360632 -0.79591532 4.74795392 -2.5 7.6875 C-2.9640625 8.49574219 -3.428125 9.30398437 -3.90625 10.13671875 C-4.2671875 10.75160156 -4.628125 11.36648437 -5 12 C-6.01932926 8.81803974 -6.06554055 8.16385138 -4.75 4.875 C-3 2 -3 2 0 0 Z " fill="#3492A4" transform="translate(43,174)"/>
<path d="M0 0 C0.33 0.99 0.66 1.98 1 3 C-1.97 5.475 -1.97 5.475 -5 8 C-5.66 7.67 -6.32 7.34 -7 7 C-4.69 4.69 -2.38 2.38 0 0 Z " fill="#3493A7" transform="translate(679,459)"/>
<path d="M0 0 C2.7558573 4.13378595 3.10756445 6.05203546 3 11 C0.81024227 7.71536341 0.00193437 4.79303725 -1 1 C-0.67 0.67 -0.34 0.34 0 0 Z " fill="#3591A2" transform="translate(713,278)"/>
</svg>
